<svg width="856" height="534" viewBox="0 0 856 534" fill="none" xmlns="http://www.w3.org/2000/svg">
<rect y="0.688721" width="856" height="532.981" rx="3" fill="#EFEFEF"/>
<rect x="2.00244" y="0.688721" width="144.168" height="532.622" rx="3" fill="#F3F3F3"/>
<mask id="path-3-inside-1" fill="white">
<rect y="0.688721" width="856" height="532.981" rx="3"/>
</mask>
<rect y="0.688721" width="856" height="532.981" rx="3" stroke="#6B3ECC" stroke-width="10" mask="url(#path-3-inside-1)"/>
<mask id="path-4-inside-2" fill="white">
<path d="M0 3.68872C0 2.03187 1.34315 0.688721 3 0.688721H853C854.657 0.688721 856 2.03187 856 3.68872V32.7261H0V3.68872Z"/>
</mask>
<path d="M0 3.68872C0 2.03187 1.34315 0.688721 3 0.688721H853C854.657 0.688721 856 2.03187 856 3.68872V32.7261H0V3.68872Z" fill="#6B3ECC" stroke="#6B3ECC" stroke-width="10" mask="url(#path-4-inside-2)"/>
<g filter="url(#filter0_d)">
<rect x="630.736" y="84.7869" width="201.235" height="109.127" rx="3" fill="#F3F3F3"/>
</g>
<g filter="url(#filter1_d)">
<rect x="172.201" y="84.7869" width="433.506" height="109.127" rx="3" fill="#F3F3F3"/>
</g>
<g filter="url(#filter2_d)">
<rect x="630.736" y="214.939" width="201.235" height="109.127" rx="3" fill="#F3F3F3"/>
</g>
<g filter="url(#filter3_d)">
<rect x="172.201" y="214.939" width="433.506" height="109.127" rx="3" fill="#F3F3F3"/>
</g>
<g filter="url(#filter4_d)">
<rect x="172.201" y="406.162" width="659.771" height="105.123" rx="3" fill="#F3F3F3"/>
</g>
<circle cx="25.8963" cy="16.7738" r="5.8729" fill="#F3F3F3"/>
<circle cx="49.3875" cy="16.7738" r="5.8729" fill="#F3F3F3"/>
<circle cx="72.8792" cy="16.7738" r="5.8729" fill="#F3F3F3"/>
<path d="M31.7 47.8934C31.7827 47.8934 31.8497 47.9604 31.8497 48.0431V51.1869C31.8497 51.2696 31.7827 51.3366 31.7 51.3366H23.6162C23.5336 51.3366 23.4665 51.4037 23.4665 51.4863L23.4665 54.7799C23.4665 54.8626 23.5336 54.9296 23.6162 54.9296H29.9036C29.9863 54.9296 30.0533 54.9966 30.0533 55.0793V58.3729C30.0533 58.4556 29.9863 58.5226 29.9036 58.5226H23.6162C23.5336 58.5226 23.4665 58.5896 23.4665 58.6723L23.4665 63.1635C23.4665 63.2462 23.3995 63.3132 23.3168 63.3132H20.1731C20.0905 63.3132 20.0234 63.2462 20.0234 63.1635V48.0431C20.0234 47.9604 20.0905 47.8934 20.1731 47.8934H31.7Z" fill="black"/>
<path d="M75.2189 48.598C75.247 48.6261 75.2628 48.6642 75.2628 48.7039V63.1635C75.2628 63.2462 75.1958 63.3132 75.1131 63.3132H71.9694C71.8867 63.3132 71.8197 63.2462 71.8197 63.1635V48.4922C71.8197 48.4095 71.8867 48.3425 71.9694 48.3425L74.9014 48.3425C74.9411 48.3425 74.9792 48.3583 75.0072 48.3863L75.2189 48.598Z" fill="black"/>
<path fill-rule="evenodd" clip-rule="evenodd" d="M41.9545 63.7624C46.3777 63.7624 49.9635 60.1765 49.9635 55.753C49.9635 51.3296 46.3777 47.7437 41.9545 47.7437C37.5313 47.7437 33.9455 51.3296 33.9455 55.753C33.9455 60.1765 37.5313 63.7624 41.9545 63.7624ZM41.9545 60.4688C44.5588 60.4688 46.6701 58.3575 46.6701 55.753C46.6701 53.1486 44.5588 51.0372 41.9545 51.0372C39.3502 51.0372 37.239 53.1486 37.239 55.753C37.239 58.3575 39.3502 60.4688 41.9545 60.4688Z" fill="black"/>
<path d="M74.6789 54.3617L78.9644 63.2287C78.9894 63.2804 79.0418 63.3132 79.0992 63.3132H81.5394C81.5924 63.3132 81.6415 63.2851 81.6684 63.2394L82.0335 62.6182C82.0589 62.575 82.061 62.5221 82.0392 62.477L75.2288 48.4269C75.2038 48.3753 75.1515 48.3425 75.0941 48.3425H74.8137C74.731 48.3425 74.664 48.4095 74.664 48.4922V54.2965C74.664 54.3191 74.6691 54.3413 74.6789 54.3617Z" fill="black"/>
<path d="M86.1909 48.3425C86.1082 48.3425 86.0412 48.4095 86.0412 48.4922V63.1635C86.0412 63.2462 86.1082 63.3132 86.1909 63.3132H89.1849C89.2676 63.3132 89.3346 63.2462 89.3346 63.1635V48.4922C89.3346 48.4095 89.2676 48.3425 89.1849 48.3425L86.1909 48.3425Z" fill="black"/>
<path d="M86.5502 54.3617L82.2647 63.2287C82.2397 63.2804 82.1874 63.3132 82.1299 63.3132H79.6897C79.6367 63.3132 79.5876 63.2851 79.5607 63.2394L79.1956 62.6182C79.1702 62.575 79.1681 62.5221 79.1899 62.477L86.0003 48.4269C86.0253 48.3753 86.0776 48.3425 86.135 48.3425H86.4154C86.4981 48.3425 86.5651 48.4095 86.5651 48.4922V54.2965C86.5651 54.3191 86.56 54.3413 86.5502 54.3617Z" fill="black"/>
<path fill-rule="evenodd" clip-rule="evenodd" d="M62.2345 47.8934C62.2369 47.8934 62.2389 47.8953 62.2389 47.8977C62.2389 47.9001 62.2407 47.902 62.243 47.9021C64.9955 48.0616 67.179 50.3761 67.179 53.208C67.179 55.1817 66.1183 56.9041 64.5435 57.8208C64.4701 57.8635 64.4439 57.9579 64.4874 58.0309L67.4936 63.087C67.5529 63.1868 67.481 63.3132 67.3649 63.3132H64.2711C64.2178 63.3132 64.1685 63.2849 64.1417 63.2388L61.4446 58.5971C61.4179 58.551 61.3685 58.5226 61.3152 58.5226H56.9994C56.9167 58.5226 56.8497 58.5896 56.8497 58.6723V63.1635C56.8497 63.2462 56.7826 63.3132 56.7 63.3132H53.706C53.6233 63.3132 53.5563 63.2462 53.5563 63.1635V48.0431C53.5563 47.9604 53.6233 47.8934 53.706 47.8934H62.2345ZM61.9395 51.1869H56.9994C56.9167 51.1869 56.8497 51.254 56.8497 51.3366V55.0793C56.8497 55.162 56.9167 55.229 56.9994 55.229H61.9395C63.0143 55.229 63.8856 54.3242 63.8856 53.208C63.8856 52.0918 63.0143 51.1869 61.9395 51.1869Z" fill="black"/>
<path fill-rule="evenodd" clip-rule="evenodd" d="M98.9578 48.3425C98.8965 48.3425 98.8413 48.38 98.8187 48.4371L93.0085 63.1084C92.9696 63.2067 93.042 63.3132 93.1477 63.3132H96.1944C96.2556 63.3132 96.3106 63.276 96.3333 63.2193L97.3762 60.6185L103.748 60.6185L104.791 63.2193C104.814 63.276 104.869 63.3132 104.93 63.3132H107.977C108.082 63.3132 108.155 63.2067 108.116 63.1084L102.306 48.4371C102.283 48.38 102.228 48.3425 102.166 48.3425H98.9578ZM100.562 52.6729L98.4567 57.9238L102.668 57.9238L100.562 52.6729Z" fill="black"/>
<rect x="172.201" y="376.127" width="322.377" height="12.014" rx="6.00702" fill="#AAAAAA"/>
<rect x="172.201" y="54.752" width="151.177" height="12.014" rx="6.00702" fill="#AAAAAA"/>
<rect x="20.0234" y="92.7964" width="101.118" height="4.00468" rx="2.00234" fill="#AAAAAA"/>
<rect x="20.0234" y="232.96" width="76.0889" height="4.00468" rx="2.00234" fill="#AAAAAA"/>
<rect x="20.0234" y="116.824" width="80.0936" height="4.00468" rx="2.00234" fill="#AAAAAA"/>
<rect x="20.0234" y="256.988" width="75.0877" height="4.00468" rx="2.00234" fill="#AAAAAA"/>
<rect x="20.0234" y="140.853" width="88.1029" height="4.00468" rx="2.00234" fill="#AAAAAA"/>
<rect x="20.0234" y="338.083" width="78.0912" height="4.00468" rx="2.00234" fill="#AAAAAA"/>
<rect x="20.0234" y="164.881" width="84.0982" height="4.00468" rx="2.00234" fill="#AAAAAA"/>
<rect x="20.0234" y="362.111" width="84.0982" height="4.00468" rx="2.00234" fill="#AAAAAA"/>
<rect x="20.0234" y="188.909" width="96.1123" height="4.00468" rx="2.00234" fill="#AAAAAA"/>
<rect x="20.0234" y="386.139" width="96.1123" height="4.00468" rx="2.00234" fill="#AAAAAA"/>
<rect x="20.0234" y="212.937" width="96.1123" height="4.00468" rx="2.00234" fill="#AAAAAA"/>
<rect x="20.0234" y="410.167" width="96.1123" height="4.00468" rx="2.00234" fill="#AAAAAA"/>
<rect x="257.301" y="261.994" width="278.325" height="16.0187" rx="1" fill="#2CD8B4"/>
<rect x="659.771" y="138.85" width="68.0795" height="39.0456" rx="1" fill="#2CD8B4"/>
<rect x="735.859" y="106.813" width="68.0795" height="71.083" rx="1" fill="#2CD8B4"/>
<rect x="659.771" y="233.961" width="25.0292" height="11.0129" rx="1" fill="#6B3ECC"/>
<rect x="257.301" y="237.966" width="87.1018" height="16.0187" rx="1" fill="#6B3ECC"/>
<rect x="257.301" y="286.022" width="322.377" height="16.0187" rx="1" fill="#6B3ECC"/>
<path fill-rule="evenodd" clip-rule="evenodd" d="M731.354 233.961C750.983 233.961 766.896 249.874 766.896 269.503C766.896 289.132 750.983 305.044 731.354 305.044C711.725 305.044 695.812 289.132 695.812 269.503C695.812 256.013 703.327 244.279 714.399 238.258L722.601 254.322C717.361 257.35 713.834 263.015 713.834 269.503C713.834 279.179 721.678 287.023 731.354 287.023C741.031 287.023 748.875 279.179 748.875 269.503C748.875 259.826 741.031 251.982 731.354 251.982C731.018 251.982 730.685 251.992 730.353 252.01L730.353 233.975C730.686 233.966 731.019 233.961 731.354 233.961Z" fill="#6B3ECC"/>
<path d="M291.841 169.886L291.785 169.39L291.749 169.394L291.713 169.403L291.841 169.886ZM417.488 147.861L417.365 147.376L417.354 147.379L417.488 147.861ZM463.041 136.347V135.847H462.979L462.918 135.863L463.041 136.347ZM500.585 136.347V136.847H500.665L500.74 136.822L500.585 136.347ZM555.649 118.326L555.805 118.801L555.889 118.774L555.959 118.719L555.649 118.326ZM572.478 105.704C572.695 105.533 572.732 105.219 572.561 105.002C572.39 104.785 572.076 104.747 571.859 104.918L572.478 105.704ZM255.926 179.881L291.969 170.37L291.713 169.403L255.671 178.914L255.926 179.881ZM291.897 170.383C304.495 168.965 323.518 166.812 339.641 164.964C347.703 164.04 355.04 163.192 360.487 162.55C365.915 161.911 369.504 161.472 370.03 161.366L369.834 160.386C369.359 160.481 365.836 160.913 360.37 161.557C354.925 162.199 347.589 163.047 339.527 163.971C323.405 165.819 304.383 167.971 291.785 169.39L291.897 170.383ZM370.03 161.366C371.054 161.161 379.218 158.942 388.962 156.265C398.724 153.582 410.113 150.428 417.622 148.342L417.354 147.379C409.845 149.465 398.458 152.618 388.697 155.3C378.918 157.987 370.812 160.19 369.834 160.386L370.03 161.366ZM417.61 148.345L463.163 136.832L462.918 135.863L417.365 147.376L417.61 148.345ZM463.041 136.847H500.585V135.847H463.041V136.847ZM500.74 136.822L555.805 118.801L555.494 117.851L500.429 135.872L500.74 136.822ZM555.959 118.719L572.478 105.704L571.859 104.918L555.34 117.933L555.959 118.719Z" fill="#6B3ECC"/>
<defs>
<filter id="filter0_d" x="612.736" y="73.7869" width="231.235" height="139.127" filterUnits="userSpaceOnUse" color-interpolation-filters="sRGB">
<feFlood flood-opacity="0" result="BackgroundImageFix"/>
<feColorMatrix in="SourceAlpha" type="matrix" values="0 0 0 0 0 0 0 0 0 0 0 0 0 0 0 0 0 0 127 0"/>
<feOffset dx="-3" dy="4"/>
<feGaussianBlur stdDeviation="7.5"/>
<feColorMatrix type="matrix" values="0 0 0 0 0 0 0 0 0 0 0 0 0 0 0 0 0 0 0.17 0"/>
<feBlend mode="normal" in2="BackgroundImageFix" result="effect1_dropShadow"/>
<feBlend mode="normal" in="SourceGraphic" in2="effect1_dropShadow" result="shape"/>
</filter>
<filter id="filter1_d" x="154.201" y="73.7869" width="463.506" height="139.127" filterUnits="userSpaceOnUse" color-interpolation-filters="sRGB">
<feFlood flood-opacity="0" result="BackgroundImageFix"/>
<feColorMatrix in="SourceAlpha" type="matrix" values="0 0 0 0 0 0 0 0 0 0 0 0 0 0 0 0 0 0 127 0"/>
<feOffset dx="-3" dy="4"/>
<feGaussianBlur stdDeviation="7.5"/>
<feColorMatrix type="matrix" values="0 0 0 0 0 0 0 0 0 0 0 0 0 0 0 0 0 0 0.17 0"/>
<feBlend mode="normal" in2="BackgroundImageFix" result="effect1_dropShadow"/>
<feBlend mode="normal" in="SourceGraphic" in2="effect1_dropShadow" result="shape"/>
</filter>
<filter id="filter2_d" x="612.736" y="203.939" width="231.235" height="139.127" filterUnits="userSpaceOnUse" color-interpolation-filters="sRGB">
<feFlood flood-opacity="0" result="BackgroundImageFix"/>
<feColorMatrix in="SourceAlpha" type="matrix" values="0 0 0 0 0 0 0 0 0 0 0 0 0 0 0 0 0 0 127 0"/>
<feOffset dx="-3" dy="4"/>
<feGaussianBlur stdDeviation="7.5"/>
<feColorMatrix type="matrix" values="0 0 0 0 0 0 0 0 0 0 0 0 0 0 0 0 0 0 0.17 0"/>
<feBlend mode="normal" in2="BackgroundImageFix" result="effect1_dropShadow"/>
<feBlend mode="normal" in="SourceGraphic" in2="effect1_dropShadow" result="shape"/>
</filter>
<filter id="filter3_d" x="154.201" y="203.939" width="463.506" height="139.127" filterUnits="userSpaceOnUse" color-interpolation-filters="sRGB">
<feFlood flood-opacity="0" result="BackgroundImageFix"/>
<feColorMatrix in="SourceAlpha" type="matrix" values="0 0 0 0 0 0 0 0 0 0 0 0 0 0 0 0 0 0 127 0"/>
<feOffset dx="-3" dy="4"/>
<feGaussianBlur stdDeviation="7.5"/>
<feColorMatrix type="matrix" values="0 0 0 0 0 0 0 0 0 0 0 0 0 0 0 0 0 0 0.17 0"/>
<feBlend mode="normal" in2="BackgroundImageFix" result="effect1_dropShadow"/>
<feBlend mode="normal" in="SourceGraphic" in2="effect1_dropShadow" result="shape"/>
</filter>
<filter id="filter4_d" x="154.201" y="395.162" width="689.771" height="135.123" filterUnits="userSpaceOnUse" color-interpolation-filters="sRGB">
<feFlood flood-opacity="0" result="BackgroundImageFix"/>
<feColorMatrix in="SourceAlpha" type="matrix" values="0 0 0 0 0 0 0 0 0 0 0 0 0 0 0 0 0 0 127 0"/>
<feOffset dx="-3" dy="4"/>
<feGaussianBlur stdDeviation="7.5"/>
<feColorMatrix type="matrix" values="0 0 0 0 0 0 0 0 0 0 0 0 0 0 0 0 0 0 0.17 0"/>
<feBlend mode="normal" in2="BackgroundImageFix" result="effect1_dropShadow"/>
<feBlend mode="normal" in="SourceGraphic" in2="effect1_dropShadow" result="shape"/>
</filter>
</defs>
</svg>
